HIERARCHY
ROOT Hips
{
  OFFSET 76.347 92.6806 -49.6304
  CHANNELS 6 Xposition Yposition Zposition Zrotation Xrotation Yrotation
  JOINT RightUpLeg
  {
    OFFSET -9.2536 -1.56971 -0.009835
    CHANNELS 3 Zrotation Xrotation Yrotation
    JOINT RightLeg
    {
      OFFSET 0.003613 -41.8721 0.033096
      CHANNELS 3 Zrotation Xrotation Yrotation
      JOINT RightFoot
      {
        OFFSET 0.190023 -41.7536 -0.162077
        CHANNELS 3 Zrotation Xrotation Yrotation
        End Site
        {
          OFFSET 0 -7.69 17.5
        }
      }
    }
  }
  JOINT LeftUpLeg
  {
    OFFSET 9.25993 -1.60807 -0.003591
    CHANNELS 3 Zrotation Xrotation Yrotation
    JOINT LeftLeg
    {
      OFFSET 0.056181 -41.8768 -0.046918
      CHANNELS 3 Zrotation Xrotation Yrotation
      JOINT LeftFoot
      {
        OFFSET 0.206009 -42.0177 -0.454554
        CHANNELS 3 Zrotation Xrotation Yrotation
        End Site
        {
          OFFSET 0 -7.69 17.5
        }
      }
    }
  }
  JOINT Spine
  {
    OFFSET 0.055174 14.3087 0.014143
    CHANNELS 3 Zrotation Xrotation Yrotation
    JOINT Spine1
    {
      OFFSET 0.013927 9.70629 0.00545
      CHANNELS 3 Zrotation Xrotation Yrotation
      JOINT Spine2
      {
        OFFSET 0.014023 10.1242 0.014512
        CHANNELS 3 Zrotation Xrotation Yrotation
        JOINT Spine3
        {
          OFFSET 0.012086 9.7191 0.009001
          CHANNELS 3 Zrotation Xrotation Yrotation
          JOINT Neck
          {
            OFFSET 0.131707 10.3859 0.054297
            CHANNELS 3 Zrotation Xrotation Yrotation
            JOINT Head
            {
              OFFSET -0.005552 9.48088 0.122183
              CHANNELS 3 Zrotation Xrotation Yrotation
              End Site
              {
                OFFSET 0 15.95 0
              }
            }
          }
          JOINT RightShoulder
          {
            OFFSET -3.20137 6.92944 0.018295
            CHANNELS 3 Zrotation Xrotation Yrotation
            JOINT RightArm
            {
              OFFSET -12.7595 0.009634 0.00435
              CHANNELS 3 Zrotation Xrotation Yrotation
              JOINT RightForeArm
              {
                OFFSET -26.5076 -0.004773 -0.015002
                CHANNELS 3 Zrotation Xrotation Yrotation
                JOINT RightHand
                {
                  OFFSET -26.002 -5.9e-05 -0.011656
                  CHANNELS 3 Zrotation Xrotation Yrotation
                  JOINT RightHandThumb1
                  {
                    OFFSET -2.48905 0.190105 3.12053
                    CHANNELS 3 Zrotation Xrotation Yrotation
                    JOINT RightHandThumb2
                    {
                      OFFSET -3.68274 0 0
                      CHANNELS 3 Zrotation Xrotation Yrotation
                      JOINT RightHandThumb3
                      {
                        OFFSET -2.55832 0 0
                        CHANNELS 3 Zrotation Xrotation Yrotation
                        End Site
                        {
                          OFFSET -2.194 0 0
                        }
                      }
                    }
                  }
                  JOINT RightInHandIndex
                  {
                    OFFSET -3.22368 0.508421 1.97842
                    CHANNELS 3 Zrotation Xrotation Yrotation
                    JOINT RightHandIndex1
                    {
                      OFFSET -5.21684 -0.091368 0.999158
                      CHANNELS 3 Zrotation Xrotation Yrotation
                      JOINT RightHandIndex2
                      {
                        OFFSET -3.61937 0 0
                        CHANNELS 3 Zrotation Xrotation Yrotation
                        JOINT RightHandIndex3
                        {
                          OFFSET -2.0521 0 0
                          CHANNELS 3 Zrotation Xrotation Yrotation
                          End Site
                          {
                            OFFSET -1.805 0 0
                          }
                        }
                      }
                    }
                  }
                  JOINT RightInHandMiddle
                  {
                    OFFSET -3.38211 0.517263 0.756737
                    CHANNELS 3 Zrotation Xrotation Yrotation
                    JOINT RightHandMiddle1
                    {
                      OFFSET -5.17411 -0.084 0.313895
                      CHANNELS 3 Zrotation Xrotation Yrotation
                      JOINT RightHandMiddle2
                      {
                        OFFSET -3.94947 0 0
                        CHANNELS 3 Zrotation Xrotation Yrotation
                        JOINT RightHandMiddle3
                        {
                          OFFSET -2.47579 0 0
                          CHANNELS 3 Zrotation Xrotation Yrotation
                          End Site
                          {
                            OFFSET -1.975 0 0
                          }
                        }
                      }
                    }
                  }
                  JOINT RightInHandRing
                  {
                    OFFSET -3.36516 0.537895 -0.128947
                    CHANNELS 3 Zrotation Xrotation Yrotation
                    JOINT RightHandRing1
                    {
                      OFFSET -4.63474 -0.022105 -0.478947
                      CHANNELS 3 Zrotation Xrotation Yrotation
                      JOINT RightHandRing2
                      {
                        OFFSET -3.44238 0 0
                        CHANNELS 3 Zrotation Xrotation Yrotation
                        JOINT RightHandRing3
                        {
                          OFFSET -2.3881 0 0
                          CHANNELS 3 Zrotation Xrotation Yrotation
                          End Site
                          {
                            OFFSET -1.857 0 0
                          }
                        }
                      }
                    }
                  }
                  JOINT RightInHandPinky
                  {
                    OFFSET -3.16105 0.469368 -1.20179
                    CHANNELS 3 Zrotation Xrotation Yrotation
                    JOINT RightHandPinky1
                    {
                      OFFSET -4.14105 -0.022105 -1.09053
                      CHANNELS 3 Zrotation Xrotation Yrotation
                      JOINT RightHandPinky2
                      {
                        OFFSET -2.75653 0 0
                        CHANNELS 3 Zrotation Xrotation Yrotation
                        JOINT RightHandPinky3
                        {
                          OFFSET -1.74189 0 0
                          CHANNELS 3 Zrotation Xrotation Yrotation
                          End Site
                          {
                            OFFSET -1.645 0 0
                          }
                        }
                      }
                    }
                  }
                }
              }
            }
          }
          JOINT LeftShoulder
          {
            OFFSET 3.20143 6.91127 -0.000395
            CHANNELS 3 Zrotation Xrotation Yrotation
            JOINT LeftArm
            {
              OFFSET 12.7779 -0.028682 -0.037301
              CHANNELS 3 Zrotation Xrotation Yrotation
              JOINT LeftForeArm
              {
                OFFSET 26.4982 -0.116492 -0.017681
                CHANNELS 3 Zrotation Xrotation Yrotation
                JOINT LeftHand
                {
                  OFFSET 26.0046 -0.058588 -0.01331
                  CHANNELS 3 Zrotation Xrotation Yrotation
                  JOINT LeftHandThumb1
                  {
                    OFFSET 2.48905 0.190105 3.12053
                    CHANNELS 3 Zrotation Xrotation Yrotation
                    JOINT LeftHandThumb2
                    {
                      OFFSET 3.68274 0 0
                      CHANNELS 3 Zrotation Xrotation Yrotation
                      JOINT LeftHandThumb3
                      {
                        OFFSET 2.55832 0 0
                        CHANNELS 3 Zrotation Xrotation Yrotation
                        End Site
                        {
                          OFFSET 2.194 0 0
                        }
                      }
                    }
                  }
                  JOINT LeftInHandIndex
                  {
                    OFFSET 3.22368 0.508421 1.97842
                    CHANNELS 3 Zrotation Xrotation Yrotation
                    JOINT LeftHandIndex1
                    {
                      OFFSET 5.21684 -0.091368 0.999158
                      CHANNELS 3 Zrotation Xrotation Yrotation
                      JOINT LeftHandIndex2
                      {
                        OFFSET 3.61937 0 0
                        CHANNELS 3 Zrotation Xrotation Yrotation
                        JOINT LeftHandIndex3
                        {
                          OFFSET 2.0521 0 0
                          CHANNELS 3 Zrotation Xrotation Yrotation
                          End Site
                          {
                            OFFSET 1.805 0 0
                          }
                        }
                      }
                    }
                  }
                  JOINT LeftInHandMiddle
                  {
                    OFFSET 3.38211 0.517263 0.756737
                    CHANNELS 3 Zrotation Xrotation Yrotation
                    JOINT LeftHandMiddle1
                    {
                      OFFSET 5.17411 -0.084 0.313895
                      CHANNELS 3 Zrotation Xrotation Yrotation
                      JOINT LeftHandMiddle2
                      {
                        OFFSET 3.94947 0 0
                        CHANNELS 3 Zrotation Xrotation Yrotation
                        JOINT LeftHandMiddle3
                        {
                          OFFSET 2.47579 0 0
                          CHANNELS 3 Zrotation Xrotation Yrotation
                          End Site
                          {
                            OFFSET 1.975 0 0
                          }
                        }
                      }
                    }
                  }
                  JOINT LeftInHandRing
                  {
                    OFFSET 3.36516 0.537895 -0.128947
                    CHANNELS 3 Zrotation Xrotation Yrotation
                    JOINT LeftHandRing1
                    {
                      OFFSET 4.63474 -0.022105 -0.478947
                      CHANNELS 3 Zrotation Xrotation Yrotation
                      JOINT LeftHandRing2
                      {
                        OFFSET 3.44238 0 0
                        CHANNELS 3 Zrotation Xrotation Yrotation
                        JOINT LeftHandRing3
                        {
                          OFFSET 2.3881 0 0
                          CHANNELS 3 Zrotation Xrotation Yrotation
                          End Site
                          {
                            OFFSET 1.857 0 0
                          }
                        }
                      }
                    }
                  }
                  JOINT LeftInHandPinky
                  {
                    OFFSET 3.16105 0.469368 -1.20179
                    CHANNELS 3 Zrotation Xrotation Yrotation
                    JOINT LeftHandPinky1
                    {
                      OFFSET 4.14105 -0.022105 -1.09053
                      CHANNELS 3 Zrotation Xrotation Yrotation
                      JOINT LeftHandPinky2
                      {
                        OFFSET 2.75653 0 0
                        CHANNELS 3 Zrotation Xrotation Yrotation
                        JOINT LeftHandPinky3
                        {
                          OFFSET 1.74189 0 0
                          CHANNELS 3 Zrotation Xrotation Yrotation
                          End Site
                          {
                            OFFSET 1.645 0 0
                          }
                        }
                      }
                    }
                  }
                }
              }
            }
          }
        }
      }
    }
  }
}
MOTION
Frames: 3
Frame Time: 0.00833333
9.851119741231777880e+02 9.044574181225816289e+01 -6.340350981515587847e+01 2.691013968703182968e+01 -1.718560123357843850e+01 -1.596752227270846163e+02 3.968598017711158121e+01 -3.569125173010313290e+01 5.509691328657436316e+01 -6.426029370242940963e+00 1.154898885451558499e+01 1.356101492080803439e+01 5.978093055868511918e+00 5.226788337832413589e+00 6.262614524467666399e+01 4.025937596677599117e+01 -1.776483329467017924e+01 2.271932247747637845e+01 -9.238976890385328655e-01 1.778860851698529189e+01 2.470880665402456344e+01 -2.135509637659200166e+01 1.337395752190953147e+01 1.249738586862669507e+02 -8.609990469110622158e+00 8.031890633846911598e+00 -1.058277074399332829e+00 -2.183480216096997051e+00 2.045112779324032903e+00 -6.496010807768695106e-01 -3.602022985673778432e+00 3.777656338304179240e+00 -1.113368621503874945e+00 -1.859245885729857273e+00 -2.645830329850163309e+00 2.041258673632202481e+00 -2.391577562193675277e+01 -4.126284032801549984e+01 6.203011190334920144e+01 -2.487950372606697158e+01 5.247343751577168369e+00 3.796532912581574237e+01 6.283610884267718966e+00 -2.357543074079774037e+00 -5.795206282189440117e-01 8.076689967326163355e+01 -1.868222795097860356e+01 1.419434057356779988e+01 5.327589496885720877e+01 -4.627186019578785192e+01 1.351482616892052135e+02 -1.726447901229010284e+01 -1.364500620493351590e+01 1.397891194372143708e+01 2.818400000000000105e+01 1.072940000000000005e+01 1.915919999999999845e+01 -3.770874056250561212e-15 -4.280235281587009830e-16 -1.000000000000000000e+01 -3.941116501536888272e-15 2.557656817360489172e-15 -1.000000000000000000e+01 4.817796680659838087e-16 -1.442209687677959799e-15 -2.114937985497455268e-15 1.998179999999999978e+01 8.718970000000000331e-01 2.396399999999999864e+00 2.400000000000000000e+01 7.001123162066935361e-16 2.348097630266104148e-16 2.000000000000000000e+01 -9.000667907714156764e-17 1.192507910285233197e-14 4.817796680659838087e-16 -1.442209687677959799e-15 -2.114937985497455268e-15 2.000000000000000000e+01 -1.485456842314945123e-15 2.395630698487564428e-15 2.400000000000000000e+01 -3.365615349999262512e-16 2.282870427817707694e-15 2.000000000000000000e+01 3.006478182358067975e-15 1.092447526229295166e-14 4.817796680659838087e-16 -1.442209687677959799e-15 -2.114937985497455268e-15 1.997479999999999833e+01 -1.025649999999999951e+00 -2.819380000000000219e+00 2.400000000000000000e+01 -3.117679950547268128e-15 3.388879630123709191e-15 2.000000000000000000e+01 8.704379546492024037e-17 1.472022641173839190e-14 4.817796680659838087e-16 -1.442209687677959799e-15 -2.114937985497455268e-15 1.978150000000000119e+01 -3.009479999999999933e+00 -8.305149999999999366e+00 2.400000000000000000e+01 1.735751510160962115e-15 2.111046291082818222e-15 2.000000000000000000e+01 1.191641443473990890e-15 1.480773061343310886e-14 -1.950146967023443878e+01 -2.078968935647525029e+01 -2.102762786044383247e+01 4.741439475314279228e+00 4.596913354785422001e+01 -1.183243885168485008e+02 2.266616509744292429e+01 3.569944757354501519e+01 -5.049185110722458347e+01 3.281419627748537238e+01 6.435368002204924665e+01 3.960082355734179771e+01 -2.818400000000000105e+01 1.072940000000000005e+01 -1.915919999999999845e+01 -1.387923676698099942e-14 1.033169749153501199e-16 1.000000000000000000e+01 -7.307766604969204291e-15 4.966984880326442486e-16 1.000000000000000000e+01 4.355950573735280848e-15 -1.181100321347197864e-15 2.682964031084260698e-15 -1.998179999999999978e+01 8.718970000000000331e-01 -2.396399999999999864e+00 -2.400000000000000000e+01 2.040023965226780590e-15 -1.003391828118318473e-14 -2.000000000000000000e+01 -1.023002007520738257e-15 -4.834143911418563781e-15 4.355950573735280848e-15 -1.181100321347197864e-15 2.682964031084260698e-15 -2.000000000000000000e+01 -5.743487910740887269e-16 -4.520483011106374949e-15 -2.400000000000000000e+01 6.473631238488955093e-16 -1.240910237458564370e-14 -2.000000000000000000e+01 2.317862458714558758e-16 -6.484462101296691766e-15 4.355950573735280848e-15 -1.181100321347197864e-15 2.682964031084260698e-15 -1.997479999999999833e+01 -1.025649999999999951e+00 2.819380000000000219e+00 -2.400000000000000000e+01 2.371458722413818047e-15 -1.146660776604927807e-14 -2.000000000000000000e+01 1.237490753995934074e-16 -8.642361094818653578e-15 4.355950573735280848e-15 -1.181100321347197864e-15 2.682964031084260698e-15 -1.978150000000000119e+01 -3.009479999999999933e+00 8.305149999999999366e+00 -2.400000000000000000e+01 -7.258177543324197916e-17 -1.012819820827357269e-14 -2.000000000000000000e+01 3.596717528650709676e-15 -8.726441087566824465e-15
9.850723304531463782e+02 9.044909108052138436e+01 -6.330709125054254827e+01 2.681071334674642159e+01 -1.726803786203761959e+01 -1.592477794858999118e+02 3.929283813150657778e+01 -3.560268768937400807e+01 5.484700318619972137e+01 -6.517715596310578618e+00 1.171252258747699493e+01 1.357501706622329252e+01 5.926243966587921186e+00 5.024150586001364438e+00 6.242418266719822384e+01 3.987957866655151662e+01 -1.778239127086258620e+01 2.250415801643721991e+01 -9.308248425272321880e-01 1.769629939712924838e+01 2.461394471056899391e+01 -2.129530458302333074e+01 1.332403901642802424e+01 1.248152187253009799e+02 -8.511465507443507050e+00 8.052288266938699479e+00 -1.036768476093332669e+00 -2.158403826028501893e+00 2.040424252091885826e+00 -6.389230732533666135e-01 -3.561003557120513641e+00 3.766507813332871990e+00 -1.096451184150661451e+00 -1.855866175277277819e+00 -2.619096025211260059e+00 2.040003305217719554e+00 -2.389100808190236336e+01 -4.085989968769471403e+01 6.185414139425218139e+01 -2.486284147589442739e+01 5.369585128960662423e+00 3.781825145932618426e+01 6.279044446375142030e+00 -2.402987939519882765e+00 -5.438202856482490244e-01 8.048723332430583355e+01 -1.856877111066001973e+01 1.439652035782786754e+01 5.296693236220311718e+01 -4.606513490231812114e+01 1.347200509676358706e+02 -1.720474446190080187e+01 -1.362155629994954964e+01 1.400830232113639617e+01 2.818400000000000105e+01 1.072940000000000005e+01 1.915919999999999845e+01 -4.028033786899682183e-15 -3.864883862865678342e-16 -1.000000000000000000e+01 -3.910893347960804935e-15 2.543062944720933565e-15 -1.000000000000000000e+01 4.802081925221679749e-16 -1.422766126818187076e-15 -2.095677040217714474e-15 1.998179999999999978e+01 8.718970000000000331e-01 2.396399999999999864e+00 2.400000000000000000e+01 6.404085584873922972e-16 1.338570018957754578e-16 2.000000000000000000e+01 -1.090464941884922856e-16 1.178539673975790960e-14 4.802081925221679749e-16 -1.422766126818187076e-15 -2.095677040217714474e-15 2.000000000000000000e+01 -1.483462512008298453e-15 2.371928721561416551e-15 2.400000000000000000e+01 -3.394731278822936314e-16 2.169058030903928246e-15 2.000000000000000000e+01 2.990390202533605107e-15 1.085981977538896430e-14 4.802081925221679749e-16 -1.422766126818187076e-15 -2.095677040217714474e-15 1.997479999999999833e+01 -1.025649999999999951e+00 -2.819380000000000219e+00 2.400000000000000000e+01 -3.143598266753673646e-15 3.224599549723278303e-15 2.000000000000000000e+01 9.083679988215108053e-17 1.468138860017608280e-14 4.802081925221679749e-16 -1.422766126818187076e-15 -2.095677040217714474e-15 1.978150000000000119e+01 -3.009479999999999933e+00 -8.305149999999999366e+00 2.400000000000000000e+01 1.664148985867625135e-15 1.929570913667610922e-15 2.000000000000000000e+01 1.210746928635366049e-15 1.480734075991669115e-14 -1.942335021716051102e+01 -2.067405312880498158e+01 -2.095442683668626671e+01 4.574132740643802819e+00 4.584932888843633947e+01 -1.182072170351924285e+02 2.258459091940813579e+01 3.549750038629329651e+01 -5.060663838223420896e+01 3.284385366904793813e+01 6.425206214872990529e+01 3.948154700201342138e+01 -2.818400000000000105e+01 1.072940000000000005e+01 -1.915919999999999845e+01 -1.375051331534347128e-14 9.895438107925377926e-17 1.000000000000000000e+01 -7.260898366760294604e-15 4.884238573600425191e-16 1.000000000000000000e+01 4.336964311686241643e-15 -1.161716594867210544e-15 2.664266632430735268e-15 -1.998179999999999978e+01 8.718970000000000331e-01 -2.396399999999999864e+00 -2.400000000000000000e+01 1.987360489770159384e-15 -1.001449697463350023e-14 -2.000000000000000000e+01 -1.013597200322538259e-15 -4.872868429495960602e-15 4.336964311686241643e-15 -1.161716594867210544e-15 2.664266632430735268e-15 -2.000000000000000000e+01 -5.476046596185008639e-16 -4.527961208470890262e-15 -2.400000000000000000e+01 6.835598654491683600e-16 -1.235319041622527433e-14 -2.000000000000000000e+01 2.510221569261391809e-16 -6.459401821922938062e-15 4.336964311686241643e-15 -1.161716594867210544e-15 2.664266632430735268e-15 -1.997479999999999833e+01 -1.025649999999999951e+00 2.819380000000000219e+00 -2.400000000000000000e+01 2.328951941729681816e-15 -1.143913261276860486e-14 -2.000000000000000000e+01 1.165589034967473145e-16 -8.567304744163261679e-15 4.336964311686241643e-15 -1.161716594867210544e-15 2.664266632430735268e-15 -1.978150000000000119e+01 -3.009479999999999933e+00 8.305149999999999366e+00 -2.400000000000000000e+01 -8.120244344991393128e-17 -1.010952795911039563e-14 -2.000000000000000000e+01 3.562782406795453182e-15 -8.603549099822440930e-15
9.850318395094267316e+02 9.045286922069544744e+01 -6.320343482193560192e+01 2.670788031982256783e+01 -1.735254062430957944e+01 -1.587985357131788078e+02 3.887907165068996562e+01 -3.551362508008565300e+01 5.458323793657872613e+01 -6.610973512168113686e+00 1.188053872492550056e+01 1.358737256913658697e+01 5.873488560771004785e+00 4.815740458543593228e+00 6.221253580549061724e+01 3.948262722677593928e+01 -1.780453265041302302e+01 2.228155479603465139e+01 -9.360049301290263024e-01 1.760069251298302362e+01 2.451152222271896264e+01 -2.123153529244042659e+01 1.327075433865314658e+01 1.246482476772177250e+02 -8.409252985450500262e+00 8.076988881433665668e+00 -1.008821201367128717e+00 -2.132233397151168219e+00 2.036793731141506747e+00 -6.263830342855774003e-01 -3.518205909981654944e+00 3.756480865980873496e+00 -1.076527945445945988e+00 -1.852601359056612829e+00 -2.591019095384560877e+00 2.038509064498141843e+00 -2.387031379700856704e+01 -4.043571356688090646e+01 6.165960332704212021e+01 -2.484651048107891569e+01 5.494919173118046452e+00 3.766023913282685243e+01 6.275458529851600353e+00 -2.451513070193418464e+00 -5.022065312881440757e-01 8.019101144248585911e+01 -1.844205909153987832e+01 1.461630980853169604e+01 5.265353295738345452e+01 -4.586295133314547456e+01 1.342589891248433673e+02 -1.713629184058178723e+01 -1.359902208093235387e+01 1.403247638252826590e+01 2.818400000000000105e+01 1.072940000000000005e+01 1.915919999999999845e+01 -4.285339066954808864e-15 -3.441335283989615205e-16 -1.000000000000000000e+01 -3.879126927001225088e-15 2.527603517879078479e-15 -1.000000000000000000e+01 4.790379970786878850e-16 -1.402641421277280576e-15 -2.075511044008913305e-15 1.998179999999999978e+01 8.718970000000000331e-01 2.396399999999999864e+00 2.400000000000000000e+01 5.792953589654844694e-16 2.955179447511278868e-17 2.000000000000000000e+01 -1.287179348634140849e-16 1.163828253100541880e-14 4.790379970786878850e-16 -1.402641421277280576e-15 -2.075511044008913305e-15 2.000000000000000000e+01 -1.480918858015890795e-15 2.346674207564240454e-15 2.400000000000000000e+01 -3.417371644143191203e-16 2.052948009915845821e-15 2.000000000000000000e+01 2.973099814450518312e-15 1.078992880578337990e-14 4.790379970786878850e-16 -1.402641421277280576e-15 -2.075511044008913305e-15 1.997479999999999833e+01 -1.025649999999999951e+00 -2.819380000000000219e+00 2.400000000000000000e+01 -3.168284526371201827e-15 3.056708813455440464e-15 2.000000000000000000e+01 9.522352961978526719e-17 1.463606101214692168e-14 4.790379970786878850e-16 -1.402641421277280576e-15 -2.075511044008913305e-15 1.978150000000000119e+01 -3.009479999999999933e+00 -8.305149999999999366e+00 2.400000000000000000e+01 1.591647160510431716e-15 1.744190153564273567e-15 2.000000000000000000e+01 1.228797854552754285e-15 1.479991612261951992e-14 -1.934449023729718675e+01 -2.055152789024376858e+01 -2.087684113345688530e+01 4.393798019426476742e+00 4.572902286169679087e+01 -1.180763222094622478e+02 2.248944904484598695e+01 3.527910993841761211e+01 -5.070830277690314603e+01 3.288675626313595757e+01 6.410832218757505530e+01 3.935015010047408168e+01 -2.818400000000000105e+01 1.072940000000000005e+01 -1.915919999999999845e+01 -1.361412793072298923e-14 9.430055650335813388e-17 1.000000000000000000e+01 -7.209674027116791024e-15 4.800400998898996579e-16 1.000000000000000000e+01 4.315433636125893968e-15 -1.141937288002923350e-15 2.644709225117423600e-15 -1.998179999999999978e+01 8.718970000000000331e-01 -2.396399999999999864e+00 -2.400000000000000000e+01 1.934269031010846709e-15 -9.988708145136184307e-15 -2.000000000000000000e+01 -1.002801750986692750e-15 -4.911299904039931794e-15 4.315433636125893968e-15 -1.141937288002923350e-15 2.644709225117423600e-15 -2.000000000000000000e+01 -5.207149288429773499e-16 -4.531630096063490819e-15 -2.400000000000000000e+01 7.194952883754522113e-16 -1.228824251089443713e-14 -2.000000000000000000e+01 2.702509946405028935e-16 -6.430261439609252960e-15 4.315433636125893968e-15 -1.141937288002923350e-15 2.644709225117423600e-15 -1.997479999999999833e+01 -1.025649999999999951e+00 2.819380000000000219e+00 -2.400000000000000000e+01 2.285065578155025013e-15 -1.140391866531731099e-14 -2.000000000000000000e+01 1.094357778482158553e-16 -8.487648712465202173e-15 4.315433636125893968e-15 -1.141937288002923350e-15 2.644709225117423600e-15 -1.978150000000000119e+01 -3.009479999999999933e+00 8.305149999999999366e+00 -2.400000000000000000e+01 -8.999105478978722167e-17 -1.008391490615305995e-14 -2.000000000000000000e+01 3.526972797221157872e-15 -8.474351382839564669e-15
